<svg width="20" height="21" viewBox="0 0 20 21" fill="none" xmlns="http://www.w3.org/2000/svg">
<path d="M6.4 18.16L19.62 10.22L18.02 7.44L15.74 6.84L14.46 4.34L12.16 3.72L10.62 0.959999L7.9 -4.76837e-07L1.84 14.16L1.88 14.22C1.64 14.3133 1.40667 14.4867 1.18 14.74C0.793333 15.1667 0.546667 15.66 0.44 16.22C0.346667 16.7667 0.386667 17.3067 0.56 17.84C0.746667 18.3733 1.05333 18.8267 1.48 19.2C1.92 19.5867 2.41333 19.8333 2.96 19.94C3.50667 20.0467 4.04667 20.0067 4.58 19.82C5.11333 19.6467 5.56667 19.3467 5.94 18.92C6.14 18.7067 6.29333 18.4533 6.4 18.16ZM6.46 17.5L6.28 17.34C6.17333 17.14 6 16.92 5.76 16.68C5.6 16.5067 5.35333 16.2733 5.02 15.98L9.32 12.5C10.28 13.1933 11.2467 13.7133 12.22 14.06L6.46 17.5ZM7.66 11.06C8.00667 11.38 8.26 11.6133 8.42 11.76C8.63333 11.9467 8.79333 12.08 8.9 12.16L4.72 15.56L7.66 11.06ZM17.68 7.9L18.9 10.04L12.82 13.68C12.5533 13.6267 12.2 13.5 11.76 13.3C11.0933 13.0067 10.4267 12.62 9.76 12.14L15.64 7.36L17.68 7.9ZM14.1 4.78L15.24 7L9.32 11.8C8.90667 11.48 8.46 11.08 7.98 10.6L12.14 4.26L14.1 4.78ZM10.24 1.4L11.7 3.96L7.6 10.2C6.78667 9.32 6.05333 8.31333 5.4 7.18L8.18 0.659999L10.24 1.4ZM5.14 7.78C5.80667 8.88667 6.52667 9.84667 7.3 10.66L4.24 15.32C3.88 15 3.61333 14.7733 3.44 14.64C3.16 14.4267 2.90667 14.2867 2.68 14.22L2.46 14.02L5.14 7.78Z" fill="#FFCD04"/>
</svg>
