<svg width="15" height="12" viewBox="0 0 15 12" fill="none" xmlns="http://www.w3.org/2000/svg">
<path d="M0 2.625C0 1.59961 0.820312 0.75 1.875 0.75H13.125C14.1504 0.75 15 1.59961 15 2.625V10.125C15 11.1797 14.1504 12 13.125 12H1.875C0.820312 12 0 11.1797 0 10.125V2.625ZM1.40625 2.625V3.29883L6.44531 7.42969C7.06055 7.92773 7.91016 7.92773 8.52539 7.42969L13.5938 3.29883V2.625C13.5938 2.39062 13.3594 2.15625 13.125 2.15625H1.875C1.61133 2.15625 1.40625 2.39062 1.40625 2.625ZM1.40625 5.11523V10.125C1.40625 10.3887 1.61133 10.5938 1.875 10.5938H13.125C13.3594 10.5938 13.5938 10.3887 13.5938 10.125V5.11523L9.43359 8.51367C8.29102 9.45117 6.67969 9.45117 5.53711 8.51367L1.40625 5.11523Z" fill="black"/>
</svg>
