<svg width="15" height="16" viewBox="0 0 15 16" fill="none" xmlns="http://www.w3.org/2000/svg">
<path d="M7.485 3.895C6.795 3.895 6.155 4.07 5.565 4.42C4.975 4.76 4.505 5.225 4.155 5.815C3.805 6.405 3.63 7.05 3.63 7.75C3.63 8.44 3.8 9.08 4.14 9.67C4.49 10.26 4.96 10.73 5.55 11.08C6.15 11.42 6.795 11.59 7.485 11.59C8.185 11.59 8.83 11.42 9.42 11.08C10.01 10.73 10.475 10.26 10.815 9.67C11.165 9.08 11.34 8.44 11.34 7.75C11.34 7.05 11.165 6.405 10.815 5.815C10.475 5.225 10.01 4.76 9.42 4.42C8.83 4.07 8.185 3.895 7.485 3.895ZM7.485 10.12C7.055 10.12 6.655 10.015 6.285 9.805C5.925 9.585 5.635 9.295 5.415 8.935C5.205 8.565 5.1 8.165 5.1 7.735C5.1 7.305 5.205 6.91 5.415 6.55C5.635 6.19 5.925 5.905 6.285 5.695C6.655 5.475 7.055 5.365 7.485 5.365C7.915 5.365 8.31 5.475 8.67 5.695C9.04 5.905 9.33 6.19 9.54 6.55C9.76 6.91 9.87 7.305 9.87 7.735C9.87 8.165 9.76 8.565 9.54 8.935C9.33 9.295 9.04 9.585 8.67 9.805C8.31 10.015 7.915 10.12 7.485 10.12ZM10.635 0.325H4.335C3.565 0.325 2.85 0.519999 2.19 0.909999C1.54 1.29 1.025 1.81 0.645 2.47C0.265 3.12 0.075 3.83 0.075 4.6V10.885C0.075 11.655 0.265 12.365 0.645 13.015C1.025 13.675 1.54 14.195 2.19 14.575C2.85 14.965 3.565 15.16 4.335 15.16H10.635C11.405 15.16 12.125 14.965 12.795 14.575C13.435 14.195 13.945 13.685 14.325 13.045C14.715 12.375 14.91 11.655 14.91 10.885V4.6C14.91 3.83 14.715 3.11 14.325 2.44C13.945 1.8 13.435 1.29 12.795 0.909999C12.125 0.519999 11.405 0.325 10.635 0.325ZM13.44 10.885C13.44 11.395 13.315 11.865 13.065 12.295C12.815 12.725 12.475 13.065 12.045 13.315C11.615 13.565 11.145 13.69 10.635 13.69H4.335C3.825 13.69 3.355 13.565 2.925 13.315C2.505 13.065 2.17 12.725 1.92 12.295C1.67 11.865 1.545 11.395 1.545 10.885V4.6C1.545 4.09 1.67 3.62 1.92 3.19C2.17 2.76 2.505 2.42 2.925 2.17C3.355 1.92 3.825 1.795 4.335 1.795H10.635C11.145 1.795 11.615 1.92 12.045 2.17C12.475 2.42 12.815 2.76 13.065 3.19C13.315 3.62 13.44 4.09 13.44 4.6V10.885ZM11.4 2.77C11.12 2.77 10.88 2.87 10.68 3.07C10.48 3.27 10.38 3.51 10.38 3.79C10.38 4.07 10.48 4.31 10.68 4.51C10.88 4.7 11.12 4.795 11.4 4.795C11.68 4.795 11.915 4.7 12.105 4.51C12.305 4.31 12.405 4.07 12.405 3.79C12.405 3.51 12.305 3.27 12.105 3.07C11.915 2.87 11.68 2.77 11.4 2.77Z" fill="black"/>
</svg>
