<svg width="16" height="18" viewBox="0 0 16 18" fill="none" xmlns="http://www.w3.org/2000/svg">
<path d="M14.3 0.319999L6.72 2.64C6.25333 2.77333 5.86 3.04667 5.54 3.46C5.22 3.87333 5.06 4.30667 5.06 4.76V12.76L4.88 12.66C4.70667 12.5933 4.51333 12.5533 4.3 12.54C3.99333 12.5 3.66 12.5067 3.3 12.56C2.71333 12.64 2.16667 12.8333 1.66 13.14C1.16667 13.4333 0.773334 13.8067 0.48 14.26C0.186667 14.7 0.0400001 15.1533 0.0400001 15.62C0.0400001 16.0867 0.186667 16.4933 0.48 16.84C0.773334 17.1867 1.16667 17.4333 1.66 17.58C2.16667 17.74 2.71333 17.78 3.3 17.7C3.88667 17.62 4.41333 17.4333 4.88 17.14C5.36 16.8467 5.73333 16.48 6 16.04C6.26667 15.6133 6.4 15.16 6.4 14.68V7.86C6.4 7.67333 6.46667 7.5 6.6 7.34C6.69333 7.22 6.82 7.12 6.98 7.04L7.18 6.94L13.86 4.84L14.06 4.8C14.2067 4.78667 14.3267 4.80667 14.42 4.86C14.5533 4.94 14.62 5.08 14.62 5.28V10.76L14.4 10.66C14.2 10.5933 13.98 10.54 13.74 10.5C13.4067 10.46 13.06 10.46 12.7 10.5C12.1133 10.5667 11.5733 10.7533 11.08 11.06C10.5867 11.3533 10.1933 11.72 9.9 12.16C9.60667 12.6 9.46 13.0533 9.46 13.52C9.46 13.9867 9.60667 14.4 9.9 14.76C10.1933 15.1067 10.5867 15.36 11.08 15.52C11.5733 15.68 12.1133 15.7267 12.7 15.66C13.2867 15.5933 13.8267 15.4133 14.32 15.12C14.8267 14.8133 15.2267 14.4467 15.52 14.02C15.8133 13.58 15.96 13.1267 15.96 12.66V1.5C15.96 1.04667 15.8 0.706666 15.48 0.48C15.16 0.239999 14.7667 0.186666 14.3 0.319999Z" fill="#FFCD04"/>
</svg>
