<svg width="21" height="23" viewBox="0 0 21 23" fill="none" xmlns="http://www.w3.org/2000/svg">
<path d="M19.125 9.375C19.025 9.375 18.8667 9.375 18.65 9.375C18.25 9.35833 17.9417 9.35833 17.725 9.375C17.575 9.39167 17.45 9.375 17.35 9.325C17.2667 9.25833 17.175 9.15833 17.075 9.025C16.9083 8.74167 16.6417 8.325 16.275 7.775C15.9083 7.225 15.6333 6.80833 15.45 6.525C15.15 6.04167 14.7 5.775 14.1 5.725C13.9667 5.69167 13.8583 5.675 13.775 5.675C13.6583 5.675 13.4833 5.65 13.25 5.6C12.8667 5.53333 12.5833 5.51667 12.4 5.55C11.55 5.65 10.275 5.81667 8.575 6.05C8.09167 6.13333 7.775 6.39167 7.625 6.825L6.8 9.425C6.73333 9.64167 6.71667 9.80833 6.75 9.925C6.8 10.1583 6.91667 10.3667 7.1 10.55C7.3 10.7333 7.50833 10.8333 7.725 10.85C8.025 10.8667 8.275 10.8083 8.475 10.675C8.69167 10.5417 8.84167 10.3333 8.925 10.05L9.5 8.325C9.55 8.225 9.61667 8.16667 9.7 8.15C9.91667 8.13333 10.2 8.09167 10.55 8.025C10.6667 8.00833 10.7417 8.01667 10.775 8.05C10.8083 8.08333 10.8083 8.16667 10.775 8.3L9.8 12.175C9.65 12.725 9.64167 13.1917 9.775 13.575C9.925 13.9417 10.2417 14.2917 10.725 14.625L11.95 15.475C12.8833 16.1083 13.5833 16.5833 14.05 16.9C14.2 16.9833 14.3 17.1417 14.35 17.375L14.425 17.9C14.6583 19.35 14.8417 20.4417 14.975 21.175C15.0417 21.5083 15.2 21.7667 15.45 21.95C15.7 22.15 15.975 22.225 16.275 22.175C16.6083 22.125 16.8667 21.9667 17.05 21.7C17.25 21.4333 17.325 21.125 17.275 20.775L16.5 16.25C16.45 15.9167 16.2667 15.6417 15.95 15.425L15.55 15.125C14.75 14.525 14.1333 14.0917 13.7 13.825C13.6 13.7583 13.5333 13.6833 13.5 13.6C13.4833 13.5167 13.4917 13.4167 13.525 13.3L14.45 9.05C14.5833 9.26667 14.775 9.56667 15.025 9.95C15.2917 10.3333 15.4833 10.625 15.6 10.825C15.9 11.3583 16.325 11.625 16.875 11.625C17.125 11.6083 17.4917 11.6 17.975 11.6C18.475 11.6 18.85 11.6 19.1 11.6C19.45 11.6 19.7333 11.5 19.95 11.3C20.1833 11.0833 20.3 10.8167 20.3 10.5C20.3 10.1833 20.1833 9.91667 19.95 9.7C19.7333 9.48333 19.4583 9.375 19.125 9.375ZM7.025 11.55C6.775 11.5667 6.6 11.7333 6.5 12.05L6.4 12.375C6.21667 13.0583 6.08333 13.5667 6 13.9C5.98333 14.0167 5.94167 14.0917 5.875 14.125C5.825 14.1417 5.74167 14.1333 5.625 14.1L5 13.925C4.5 13.7917 4.15 13.7167 3.95 13.7C3.43333 13.7 2.99167 13.825 2.625 14.075C2.275 14.325 2.03333 14.6667 1.9 15.1L0.725 19.45C0.658333 19.7333 0.691667 19.9917 0.825 20.225C0.975 20.475 1.19167 20.6417 1.475 20.725L2.625 21.025C2.70833 21.0417 2.76667 21.0333 2.8 21C2.83333 20.9833 2.85833 20.9333 2.875 20.85C2.925 20.4167 3.08333 20.05 3.35 19.75C3.61667 19.45 3.94167 19.25 4.325 19.15C4.725 19.05 5.125 19.075 5.525 19.225C5.625 19.2583 5.7 19.2667 5.75 19.25C5.8 19.2333 5.83333 19.175 5.85 19.075C5.98333 18.5083 6.2 17.675 6.5 16.575L7.625 12.275C7.675 12.0583 7.64167 11.8833 7.525 11.75C7.40833 11.6 7.24167 11.5333 7.025 11.55ZM14.275 4.825C14.8917 4.825 15.4167 4.6 15.85 4.15C16.3 3.7 16.525 3.16667 16.525 2.55C16.525 1.93333 16.3 1.40833 15.85 0.974999C15.4167 0.524999 14.8917 0.299999 14.275 0.299999C13.6583 0.299999 13.125 0.524999 12.675 0.974999C12.2417 1.40833 12.025 1.93333 12.025 2.55C12.025 3.16667 12.2417 3.7 12.675 4.15C13.1083 4.58333 13.6417 4.80833 14.275 4.825ZM10.975 15.825C10.8917 15.775 10.7667 15.6917 10.6 15.575C10.25 15.3583 10 15.1833 9.85 15.05C9.58333 14.8333 9.375 14.5917 9.225 14.325C8.49167 17.1083 7.925 19.25 7.525 20.75C7.475 20.9167 7.475 21.0917 7.525 21.275C7.59167 21.5417 7.725 21.7583 7.925 21.925C8.125 22.0917 8.36667 22.175 8.65 22.175C8.93333 22.175 9.175 22.0917 9.375 21.925C9.575 21.7583 9.70833 21.525 9.775 21.225L11.125 16.225C11.1417 16.1417 11.1417 16.075 11.125 16.025C11.1083 15.9583 11.0583 15.8917 10.975 15.825ZM4.85 19.95C4.55 19.9333 4.28333 20.0333 4.05 20.25C3.83333 20.4833 3.71667 20.75 3.7 21.05C3.7 21.35 3.80833 21.6083 4.025 21.825C4.24167 22.0583 4.5 22.175 4.8 22.175C5.11667 22.1917 5.38333 22.0833 5.6 21.85C5.83333 21.6333 5.95 21.375 5.95 21.075C5.96667 20.775 5.85833 20.5083 5.625 20.275C5.40833 20.0583 5.15 19.95 4.85 19.95Z" fill="#FFCD04"/>
</svg>
